<?xml version="1.0" encoding="utf-8"?>
<!-- Generator: Adobe Illustrator 24.2.3, SVG Export Plug-In . SVG Version: 6.00 Build 0)  -->
<svg version="1.1" id="Layer_1" xmlns="http://www.w3.org/2000/svg" xmlns:xlink="http://www.w3.org/1999/xlink" x="0px" y="0px"
	 viewBox="0 0 1000 1000" style="enable-background:new 0 0 1000 1000;" xml:space="preserve">
<style type="text/css">
	.st0{fill:#F60C0E;}
	.st1{fill:#020202;}
	.st2{fill:#FDFDFD;}
</style>
<path class="st0" d="M802.5,480c-2.3,3.3-5.5,4.3-9.6,4.3c-39.7-0.1-79.3,0-119,0c-1.8-5-1.4-10,0-15.1c39.6,0,79.3,0.1,118.9,0
	c4,0,7.2,1,9.5,4.3C802.5,475.7,802.5,477.9,802.5,480z"/>
<path class="st1" d="M674,469.3c-1.5,5-1.9,10,0,15.1c3,11.8,13.5,19.7,26.6,19.9c13.3,0.2,26.6,0.1,39.9,0.1c1,0,2.2-0.6,2.9,0.7
	c0.5,1-0.2,1.8-0.7,2.6c-10.4,16.3-24.6,27.2-44,30.5c-36.2,6.2-70.1-20.6-72.5-57.1c-2.5-37.3,25.4-62,52.3-65.8
	c24.7-3.5,50.1,6.1,64.4,30.9c1.9,3.3-0.5,3-2.5,3c-12.9,0-25.9-0.1-38.8,0c-13.7,0.1-23.8,7.3-27.5,19.4
	C673.9,468.8,674,469,674,469.3z M688.1,434.7c0-3.1-2.5-5.6-5.7-5.6c-3.2,0-5.7,2.3-5.8,5.5c-0.1,3.2,2.7,6,5.9,5.9
	C685.5,440.4,688.1,437.7,688.1,434.7z"/>
<path class="st1" d="M473.7,478.5c2.7,11.6,12.7,20.8,24.9,21c13.9,0.2,27.8,0.2,41.7,0.2c1,0,2.3-0.6,3,0.5
	c0.9,1.3-0.3,2.2-0.9,3.2c-12.4,19.2-29.8,30.4-52.8,30.9c-16.9,0.4-31.9-5.8-44.4-17.3c-11.6-10.7-17.8-24.1-19-39.7
	c-3-40.8,29.9-66.2,58-67c25.7-0.8,45.3,9.5,58.7,31.5c1.9,3.1-0.3,3.1-2.5,3.1c-12.9,0-25.9-0.1-38.8,0c-13.6,0.1-23.8,7.2-27.5,19
	c-0.2,0.8-0.3,1.6-0.5,2.4C472.7,470.3,471.9,474.4,473.7,478.5z M488.1,429.2c0.1-3-2.5-5.7-5.6-5.8c-3.2-0.1-5.8,2.2-5.9,5.4
	c-0.1,3.3,2.4,6,5.6,6C485.3,434.8,488,432.2,488.1,429.2z"/>
<path class="st1" d="M299.1,499.3c2.6,0.1,5.2,0.4,7.9,0.4c11.3,0,22.5,0,33.8-0.1c1,0,2-0.3,2.6,0.7c0.6,1-0.1,1.8-0.6,2.6
	c-10.6,16.7-25.3,27.7-45.1,30.7c-33.5,5.1-65-17.9-70.8-51.3c-6.2-35.6,20.6-69.8,56.8-71.9c25.8-1.5,45.6,9.1,59.2,31.1
	c1.5,2.5,1,3.2-2.1,3.2c-12.3,0-24.7,0-37,0c-1.5,0-3.1,0.2-4.6,0.3c-4.3,0.2-8.4,1.2-12.2,3.5c-6.6,3.3-10.6,8.7-12.5,15.7
	c-1.5,5-2.4,10-0.3,15.1c2.3,7.5,6.3,13.6,13.6,17.1C291.1,498.5,294.9,499.6,299.1,499.3z M288.1,428c0.1-3-2.5-5.7-5.6-5.8
	c-3.1-0.1-5.7,2.4-5.9,5.5c-0.2,3.3,2.4,5.9,5.7,5.9C285.5,433.5,288,431.1,288.1,428z"/>
<path class="st0" d="M274,479.3c-2.1-5.1-1.2-10.1,0.3-15.1c3.6,0,7.1,0,10.7,0.1c1.5,0,2.1-0.4,2-2c-0.1-4.6-0.1-9.2-0.2-13.8
	c3.7-2.3,7.8-3.3,12.2-3.5c2.3,2.2,3.1,4.9,3,8c-0.1,12.8-0.1,25.7,0,38.5c0,3-0.7,5.6-2.9,7.7c-4.2,0.2-8-0.8-11.5-2.9
	c-1.2-4.8-0.5-9.7-0.6-14.6c0-2-0.6-2.6-2.6-2.6C280.9,479.4,277.5,479.3,274,479.3z"/>
<path class="st0" d="M473.7,478.5c-1.8-4.1-1-8.2,0-12.3c5-1.9,9.3-0.4,13.5,2.5c8.3,5.7,8.3,5.7,16.8-0.1c6.2-4.2,11.3-4.8,17.2,0
	c6.3,5.1,11.7,5.3,17.7-0.1c2.2-2,5.1-3.1,8.3-3c2.9,0,4.8,1.3,5.2,4.3c0.4,2.9-0.6,5-3.6,5.7c-2.8,0.6-5,2.2-7.1,4
	c-9,7.2-15.3,7.1-23.8-0.6c-3.9-3.5-5.5-3.6-9.6-0.3c-0.9,0.7-1.8,1.6-2.7,2.3c-5.9,4.8-12.6,5.1-18.8,0.6c-1.2-0.8-2.2-1.8-3.4-2.7
	C478.8,475.2,478.4,475.2,473.7,478.5z"/>
<path class="st2" d="M688.1,434.7c0,3-2.6,5.7-5.6,5.8c-3.2,0.1-5.9-2.6-5.9-5.9c0.1-3.1,2.6-5.5,5.8-5.5
	C685.6,429.1,688.1,431.6,688.1,434.7z"/>
<path class="st2" d="M488.1,429.2c-0.1,3-2.8,5.6-5.8,5.6c-3.2,0-5.8-2.7-5.6-6c0.1-3.1,2.7-5.5,5.9-5.4
	C485.7,423.5,488.2,426.2,488.1,429.2z"/>
<path class="st2" d="M274,479.3c3.5,0,6.9,0.1,10.4-0.1c2-0.1,2.6,0.5,2.6,2.6c0.1,4.9-0.7,9.8,0.6,14.6
	C280.3,492.9,276.3,486.8,274,479.3z"/>
<path class="st2" d="M286.8,448.5c0,4.6,0,9.2,0.2,13.8c0,1.6-0.5,2-2,2c-3.6-0.1-7.1-0.1-10.7-0.1
	C276.2,457.2,280.3,451.9,286.8,448.5z"/>
<path class="st2" d="M288.1,428c-0.1,3.1-2.6,5.5-5.8,5.5c-3.3,0-5.9-2.6-5.7-5.9c0.2-3.1,2.9-5.6,5.9-5.5
	C285.5,422.3,288.1,425,288.1,428z"/>
</svg>
